<?xml version="1.0" encoding="utf-8"?>
<!-- Generator: Adobe Illustrator 21.0.2, SVG Export Plug-In . SVG Version: 6.00 Build 0)  -->
<svg version="1.1" id="Capa_1" xmlns="http://www.w3.org/2000/svg" xmlns:xlink="http://www.w3.org/1999/xlink" x="0px" y="0px"
	 viewBox="0 0 792 612" style="enable-background:new 0 0 792 612;" xml:space="preserve">
<style type="text/css">
	.st0{clip-path:url(#SVGID_2_);fill:#138695;}
	.st1{clip-path:url(#SVGID_4_);}
	.st2{fill:#F7DD00;}
	.st3{clip-path:url(#SVGID_6_);}
	.st4{clip-path:url(#SVGID_8_);}
	.st5{clip-path:url(#SVGID_10_);}
	.st6{clip-path:url(#SVGID_12_);}
	.st7{clip-path:url(#SVGID_14_);fill:none;stroke:#000000;stroke-width:2;stroke-miterlimit:10;}
	.st8{stroke:#FFFFFF;stroke-width:12;stroke-linecap:round;stroke-linejoin:round;stroke-miterlimit:10;}
	.st9{fill:#485179;}
</style>
<g>
	<g>
		<defs>
			<polygon id="SVGID_1_" points="159,456 452,304 316,92 29,246 			"/>
		</defs>
		<clipPath id="SVGID_2_">
			<use xlink:href="#SVGID_1_"  style="overflow:visible;"/>
		</clipPath>
		<polygon class="st0" points="159,456 452,304 316,92 29,246 		"/>
	</g>
	<g>
		<defs>
			<polygon id="SVGID_3_" points="159,456 452,304 316,92 29,246 			"/>
		</defs>
		<clipPath id="SVGID_4_">
			<use xlink:href="#SVGID_3_"  style="overflow:visible;"/>
		</clipPath>
		<g class="st1">
			
				<image style="overflow:visible;opacity:0.79;enable-background:new    ;" width="1458" height="929" xlink:href="CED306D3B4B13FD1.png"  transform="matrix(0.2389 0 0 0.2389 118.895 253.3593)">
			</image>
			<g>
				<path class="st2" d="M176,268.5c0,0-47,76-41.5,146c27,45.5,27,45.5,27,45.5L452,304l-10-19C442,285,227.5,448,176,268.5z"/>
			</g>
		</g>
	</g>
	<g>
		<defs>
			<polygon id="SVGID_5_" points="159,456 452,304 316,92 29,246 			"/>
		</defs>
		<clipPath id="SVGID_6_">
			<use xlink:href="#SVGID_5_"  style="overflow:visible;"/>
		</clipPath>
		<g class="st3">
			
				<image style="overflow:visible;opacity:0.79;enable-background:new    ;" width="1363" height="658" xlink:href="CED306D3B4B13FD7.png"  transform="matrix(0.2393 0 0 0.2393 24.5958 124.1897)">
			</image>
			<g>
				<path class="st2" d="M268.5,179l12-2.5c0,0,0.5-7,12-10.5c7-2,11.5,2,11.5,2l29.5-14c0,0,5,3,0,5S309,172,309,172
					s-1.5,14-8.5,17.5s-8.5,6-8.5,6s-8.5,1-10.5-4.5S239,216,239,216l-13.5,10.5c0,0-11.5,15.5-22,18.5s-32.5,15-31,5
					c-31.5,8-50.5,16-50.5,16l1.5-3l50.5-20l2-10l-15-3.5c0,0-6,3.5-11.5,6s-14,4-21.5,5s-13.5,4-23,4.5s-9.5,0.5-9.5,0.5l-53.5,12
					c0,0-11-0.5,13-6.5c26.5-7,107.5-34,107.5-34l-10-12c0,0-6.5-9.5,8-2.5s14.5,7,14.5,7s13.5-10.5,24-8c11-14,50.5-66,64.5-61.5
					c11.5,2,24,5,19.5,14.5S268.5,179,268.5,179z"/>
			</g>
		</g>
	</g>
	<g>
		<defs>
			<polygon id="SVGID_7_" points="159,456 452,304 316,92 29,246 			"/>
		</defs>
		<clipPath id="SVGID_8_">
			<use xlink:href="#SVGID_7_"  style="overflow:visible;"/>
		</clipPath>
		<ellipse class="st4" cx="194.5" cy="211.8" rx="7.5" ry="7.2"/>
	</g>
	<g>
		<defs>
			<polygon id="SVGID_9_" points="159,456 452,304 316,92 29,246 			"/>
		</defs>
		<clipPath id="SVGID_10_">
			<use xlink:href="#SVGID_9_"  style="overflow:visible;"/>
		</clipPath>
		<ellipse class="st5" cx="295.5" cy="175.2" rx="7.5" ry="7.2"/>
	</g>
	<g>
		<defs>
			<polygon id="SVGID_11_" points="159,456 452,304 316,92 29,246 			"/>
		</defs>
		<clipPath id="SVGID_12_">
			<use xlink:href="#SVGID_11_"  style="overflow:visible;"/>
		</clipPath>
		<path class="st6" d="M267.1,140.7c0,0-10.5,5.3-11,7.8s-0.5,2.5,7.3-0.9s11.7-4.2,11.7-4.2L267.1,140.7z"/>
	</g>
	<g>
		<defs>
			<polygon id="SVGID_13_" points="159,456 452,304 316,92 29,246 			"/>
		</defs>
		<clipPath id="SVGID_14_">
			<use xlink:href="#SVGID_13_"  style="overflow:visible;"/>
		</clipPath>
		<path class="st7" d="M208,197.8c-0.1,0.1-0.2,0.2-0.2,0.3c-0.3,0.3-0.5,0.6-0.7,0.9c-0.1,0.1-0.1,0.2-0.2,0.2
			c-0.3,0.3-0.5,0.6-0.7,0.9l43.6-47.2c0,0-0.1,0.1-0.3,0.3c-0.1,0.1-0.1,0.1-0.2,0.2c-0.1,0.1-0.1,0.1-0.2,0.2
			c-0.1,0.1-0.1,0.1-0.2,0.2c-0.2,0.2-0.4,0.4-0.6,0.6l0,0c-0.2,0.2-0.4,0.4-0.6,0.6c-0.2,0.2-0.4,0.4-0.6,0.6
			c-0.2,0.2-0.3,0.4-0.5,0.6c-0.1,0.1-0.3,0.3-0.4,0.4c-0.1,0.1-0.3,0.3-0.4,0.4v-0.1c-1.9,2-4.4,4.6-7.3,7.6l0,0
			c-0.1,0.1-0.2,0.2-0.3,0.4c-0.2,0.2-0.4,0.4-0.6,0.7c-0.3,0.4-0.7,0.7-1,1.1c-0.2,0.2-0.4,0.4-0.6,0.6c-0.4,0.4-0.7,0.8-1.1,1.2
			c-0.2,0.2-0.4,0.4-0.6,0.6c-0.4,0.4-0.8,0.9-1.2,1.3c-0.2,0.2-0.3,0.3-0.5,0.5c-0.6,0.6-1.2,1.2-1.8,1.9c-0.1,0.1-0.2,0.2-0.3,0.3
			c-0.5,0.5-1,1-1.5,1.6c-0.2,0.2-0.4,0.4-0.6,0.6c-0.4,0.4-0.8,0.9-1.2,1.3c-0.2,0.2-0.4,0.5-0.7,0.7c-0.4,0.4-0.7,0.8-1.1,1.2
			c-0.2,0.3-0.5,0.5-0.7,0.8c-0.4,0.4-0.7,0.8-1.1,1.1c-0.2,0.3-0.5,0.5-0.7,0.8c-0.4,0.4-0.8,0.8-1.1,1.2c-0.2,0.2-0.4,0.4-0.6,0.6
			c-0.5,0.5-0.9,1-1.4,1.5c-0.1,0.1-0.2,0.2-0.3,0.3c-0.6,0.6-1.1,1.2-1.6,1.8c-0.2,0.2-0.3,0.3-0.5,0.5c-0.4,0.4-0.8,0.8-1.1,1.3
			c-0.2,0.2-0.4,0.4-0.6,0.6c-0.3,0.4-0.6,0.7-1,1.1c-0.2,0.2-0.4,0.4-0.6,0.7c-0.2,0.2-0.3,0.3-0.5,0.5l0.1-0.1
			c-1.3,1.4-2.5,2.8-3.5,4l0,0c-0.2,0.2-0.3,0.4-0.5,0.6c-0.2,0.3-0.5,0.5-0.7,0.8C208.5,197.2,208.3,197.5,208,197.8z"/>
	</g>
</g>
<g>
	<path class="st8" d="M258.5,243.4h12.9l16.6,47l16.9-47h12.9L294,309.5h-12L258.5,243.4z"/>
	<path class="st8" d="M329.6,240.5c1.4,0,2.7,0.5,3.7,1.5s1.5,2.2,1.5,3.7c0,1.4-0.5,2.6-1.5,3.6s-2.2,1.5-3.7,1.5
		c-1.4,0-2.6-0.5-3.6-1.5s-1.5-2.2-1.5-3.6c0-1.4,0.5-2.7,1.5-3.7S328.2,240.5,329.6,240.5z M326.5,260.6h6.3v48.9h-6.3V260.6z"/>
	<path class="st8" d="M381.2,260.6h12.3v48.9h-12.3v-5.2c-2.4,2.3-4.8,3.9-7.2,4.9c-2.4,1-5,1.5-7.8,1.5c-6.3,0-11.8-2.5-16.4-7.3
		c-4.6-4.9-6.9-11-6.9-18.3c0-7.6,2.2-13.7,6.7-18.6c4.5-4.8,9.9-7.2,16.3-7.2c2.9,0,5.7,0.6,8.3,1.7c2.6,1.1,5,2.8,7.1,5v-5.4
		H381.2z M368.3,270.7c-3.8,0-6.9,1.3-9.5,4c-2.5,2.7-3.8,6.1-3.8,10.3c0,4.2,1.3,7.7,3.8,10.4c2.6,2.7,5.7,4.1,9.4,4.1
		c3.9,0,7-1.3,9.6-4c2.5-2.7,3.8-6.2,3.8-10.5s-1.3-7.7-3.8-10.3C375.4,272,372.2,270.7,368.3,270.7z"/>
	<path class="st8" d="M405.9,260.6h6.4v56.3c0,4.1-0.7,7.1-2.2,9s-3.5,2.8-6.1,2.8c-2.1,0-4.5-0.5-7.2-1.5v-5.7
		c1.7,0.9,3.2,1.3,4.5,1.3c1.7,0,3-0.7,3.8-2.1c0.5-0.9,0.8-2.8,0.8-5.6L405.9,260.6L405.9,260.6z M409,240.5c1.4,0,2.7,0.5,3.7,1.5
		s1.5,2.2,1.5,3.7c0,1.4-0.5,2.6-1.5,3.6s-2.2,1.5-3.7,1.5s-2.7-0.5-3.7-1.5s-1.5-2.2-1.5-3.6c0-1.4,0.5-2.7,1.5-3.7
		C406.4,241,407.6,240.5,409,240.5z"/>
	<path class="st8" d="M473.6,288.6h-39.4c0.6,3.5,2.1,6.2,4.6,8.3c2.5,2.1,5.6,3.1,9.5,3.1c4.6,0,8.5-1.6,11.8-4.8l10.3,4.9
		c-2.6,3.7-5.7,6.4-9.3,8.1c-3.6,1.8-7.9,2.6-12.8,2.6c-7.7,0-13.9-2.4-18.7-7.3c-4.8-4.8-7.2-10.9-7.2-18.2
		c0-7.5,2.4-13.7,7.2-18.6c4.8-4.9,10.8-7.4,18.1-7.4c7.7,0,14,2.5,18.8,7.4s7.2,11.4,7.2,19.5L473.6,288.6z M461.3,279
		c-0.8-2.7-2.4-4.9-4.8-6.7s-5.2-2.6-8.3-2.6c-3.4,0-6.4,1-9,2.9c-1.6,1.2-3.1,3.3-4.5,6.3h26.6V279z"/>
	<path class="st8" d="M508.9,266l-4,4.2c-3.4-3.3-6.7-4.9-9.9-4.9c-2,0-3.8,0.7-5.3,2s-2.2,2.9-2.2,4.7c0,1.6,0.6,3.1,1.8,4.5
		c1.2,1.5,3.7,3.2,7.6,5.2c4.7,2.4,7.9,4.8,9.5,7c1.7,2.3,2.5,4.8,2.5,7.7c0,4-1.4,7.4-4.2,10.2s-6.3,4.2-10.6,4.2
		c-2.8,0-5.5-0.6-8.1-1.8s-4.7-2.9-6.4-5.1l4-4.5c3.2,3.6,6.6,5.4,10.2,5.4c2.5,0,4.7-0.8,6.4-2.4s2.7-3.5,2.7-5.7
		c0-1.8-0.6-3.4-1.8-4.8c-1.2-1.4-3.8-3.1-7.9-5.2c-4.4-2.3-7.4-4.5-9-6.7s-2.4-4.7-2.4-7.6c0-3.7,1.3-6.8,3.8-9.3s5.7-3.7,9.6-3.7
		C499.8,259.4,504.3,261.6,508.9,266z"/>
	<path class="st8" d="M541.3,243.4h12.9l16.6,47l16.9-47h12.9l-23.8,66.1h-12.1L541.3,243.4z"/>
	<path class="st8" d="M612.4,240.5c1.4,0,2.7,0.5,3.7,1.5s1.5,2.2,1.5,3.7c0,1.4-0.5,2.6-1.5,3.6s-2.2,1.5-3.7,1.5
		c-1.4,0-2.6-0.5-3.6-1.5s-1.5-2.2-1.5-3.6c0-1.4,0.5-2.7,1.5-3.7C609.8,241,611,240.5,612.4,240.5z M609.3,260.6h6.3v48.9h-6.3
		V260.6z"/>
	<path class="st8" d="M625,260.6h10.5v6.2c1.1-2.4,2.7-4.3,4.5-5.5c1.9-1.3,4-1.9,6.2-1.9c1.6,0,3.3,0.4,5,1.3l-3.8,10.6
		c-1.4-0.7-2.6-1.1-3.6-1.1c-1.9,0-3.5,1.2-4.8,3.5s-2,6.9-2,13.8v2.4v19.8h-12V260.6z"/>
	<path class="st8" d="M700.3,260.6h6.3v39c0,6.9-0.6,11.9-1.8,15.1c-1.6,4.5-4.5,8-8.6,10.4s-9,3.6-14.7,3.6c-4.2,0-8-0.6-11.3-1.8
		c-3.3-1.2-6.1-2.8-8.2-4.8c-2.1-2-4-4.9-5.8-8.8h6.8c1.9,3.2,4.3,5.6,7.2,7.2s6.6,2.3,10.9,2.3c4.3,0,7.9-0.8,10.9-2.4
		s5.1-3.6,6.3-6c1.3-2.4,1.9-6.3,1.9-11.7v-2.5c-2.4,3-5.3,5.3-8.7,6.9s-7.1,2.4-10.9,2.4c-4.5,0-8.7-1.1-12.7-3.3
		c-4-2.2-7-5.2-9.2-9s-3.2-7.9-3.2-12.5c0-4.5,1.1-8.7,3.4-12.7c2.2-3.9,5.4-7,9.3-9.3c4-2.3,8.2-3.4,12.6-3.4
		c3.7,0,7.1,0.8,10.2,2.3c3.2,1.5,6.2,4,9.2,7.5L700.3,260.6L700.3,260.6z M681.7,265.4c-3.6,0-6.9,0.9-9.9,2.6
		c-3.1,1.7-5.5,4.1-7.2,7.1s-2.6,6.3-2.6,9.9c0,5.4,1.8,9.8,5.4,13.3c3.6,3.5,8.3,5.3,14,5.3c5.8,0,10.4-1.7,14-5.2
		c3.5-3.5,5.3-8,5.3-13.7c0-3.7-0.8-7-2.4-9.9c-1.6-2.9-3.9-5.2-6.9-6.9C688.3,266.3,685.2,265.4,681.7,265.4z"/>
	<path class="st8" d="M742.2,259.4c4.6,0,9,1.2,13,3.5c4.1,2.3,7.2,5.4,9.5,9.4s3.4,8.2,3.4,12.8c0,4.6-1.1,8.9-3.4,12.9
		c-2.3,4-5.4,7.2-9.4,9.4c-4,2.3-8.3,3.4-13.1,3.4c-7,0-13-2.5-18-7.5s-7.4-11.1-7.4-18.2c0-7.6,2.8-14,8.4-19.1
		C730.2,261.6,735.9,259.4,742.2,259.4z M742.4,270.9c-3.8,0-7,1.3-9.5,4s-3.8,6-3.8,10.2c0,4.3,1.3,7.7,3.8,10.3
		c2.5,2.6,5.7,4,9.5,4s7-1.3,9.6-4s3.8-6.1,3.8-10.3c0-4.2-1.3-7.6-3.8-10.2C749.6,272.2,746.3,270.9,742.4,270.9z"/>
</g>
<g>
	<path class="st9" d="M258.5,243.4h12.9l16.6,47l16.9-47h12.9L294,309.5h-12L258.5,243.4z"/>
	<path class="st9" d="M329.6,240.5c1.4,0,2.7,0.5,3.7,1.5s1.5,2.2,1.5,3.7c0,1.4-0.5,2.6-1.5,3.6s-2.2,1.5-3.7,1.5
		c-1.4,0-2.6-0.5-3.6-1.5s-1.5-2.2-1.5-3.6c0-1.4,0.5-2.7,1.5-3.7S328.2,240.5,329.6,240.5z M326.5,260.6h6.3v48.9h-6.3V260.6z"/>
	<path class="st9" d="M381.2,260.6h12.3v48.9h-12.3v-5.2c-2.4,2.3-4.8,3.9-7.2,4.9c-2.4,1-5,1.5-7.8,1.5c-6.3,0-11.8-2.5-16.4-7.3
		c-4.6-4.9-6.9-11-6.9-18.3c0-7.6,2.2-13.7,6.7-18.6c4.5-4.8,9.9-7.2,16.3-7.2c2.9,0,5.7,0.6,8.3,1.7c2.6,1.1,5,2.8,7.1,5v-5.4
		H381.2z M368.3,270.7c-3.8,0-6.9,1.3-9.5,4c-2.5,2.7-3.8,6.1-3.8,10.3c0,4.2,1.3,7.7,3.8,10.4c2.6,2.7,5.7,4.1,9.4,4.1
		c3.9,0,7-1.3,9.6-4c2.5-2.7,3.8-6.2,3.8-10.5s-1.3-7.7-3.8-10.3C375.4,272,372.2,270.7,368.3,270.7z"/>
	<path class="st9" d="M405.9,260.6h6.4v56.3c0,4.1-0.7,7.1-2.2,9s-3.5,2.8-6.1,2.8c-2.1,0-4.5-0.5-7.2-1.5v-5.7
		c1.7,0.9,3.2,1.3,4.5,1.3c1.7,0,3-0.7,3.8-2.1c0.5-0.9,0.8-2.8,0.8-5.6L405.9,260.6L405.9,260.6z M409,240.5c1.4,0,2.7,0.5,3.7,1.5
		s1.5,2.2,1.5,3.7c0,1.4-0.5,2.6-1.5,3.6s-2.2,1.5-3.7,1.5s-2.7-0.5-3.7-1.5s-1.5-2.2-1.5-3.6c0-1.4,0.5-2.7,1.5-3.7
		C406.4,241,407.6,240.5,409,240.5z"/>
	<path class="st9" d="M473.6,288.6h-39.4c0.6,3.5,2.1,6.2,4.6,8.3c2.5,2.1,5.6,3.1,9.5,3.1c4.6,0,8.5-1.6,11.8-4.8l10.3,4.9
		c-2.6,3.7-5.7,6.4-9.3,8.1c-3.6,1.8-7.9,2.6-12.8,2.6c-7.7,0-13.9-2.4-18.7-7.3c-4.8-4.8-7.2-10.9-7.2-18.2
		c0-7.5,2.4-13.7,7.2-18.6c4.8-4.9,10.8-7.4,18.1-7.4c7.7,0,14,2.5,18.8,7.4s7.2,11.4,7.2,19.5L473.6,288.6z M461.3,279
		c-0.8-2.7-2.4-4.9-4.8-6.7s-5.2-2.6-8.3-2.6c-3.4,0-6.4,1-9,2.9c-1.6,1.2-3.1,3.3-4.5,6.3h26.6V279z"/>
	<path class="st9" d="M508.9,266l-4,4.2c-3.4-3.3-6.7-4.9-9.9-4.9c-2,0-3.8,0.7-5.3,2s-2.2,2.9-2.2,4.7c0,1.6,0.6,3.1,1.8,4.5
		c1.2,1.5,3.7,3.2,7.6,5.2c4.7,2.4,7.9,4.8,9.5,7c1.7,2.3,2.5,4.8,2.5,7.7c0,4-1.4,7.4-4.2,10.2s-6.3,4.2-10.6,4.2
		c-2.8,0-5.5-0.6-8.1-1.8s-4.7-2.9-6.4-5.1l4-4.5c3.2,3.6,6.6,5.4,10.2,5.4c2.5,0,4.7-0.8,6.4-2.4s2.7-3.5,2.7-5.7
		c0-1.8-0.6-3.4-1.8-4.8c-1.2-1.4-3.8-3.1-7.9-5.2c-4.4-2.3-7.4-4.5-9-6.7s-2.4-4.7-2.4-7.6c0-3.7,1.3-6.8,3.8-9.3s5.7-3.7,9.6-3.7
		C499.8,259.4,504.3,261.6,508.9,266z"/>
	<path class="st9" d="M541.3,243.4h12.9l16.6,47l16.9-47h12.9l-23.8,66.1h-12.1L541.3,243.4z"/>
	<path class="st9" d="M612.4,240.5c1.4,0,2.7,0.5,3.7,1.5s1.5,2.2,1.5,3.7c0,1.4-0.5,2.6-1.5,3.6s-2.2,1.5-3.7,1.5
		c-1.4,0-2.6-0.5-3.6-1.5s-1.5-2.2-1.5-3.6c0-1.4,0.5-2.7,1.5-3.7C609.8,241,611,240.5,612.4,240.5z M609.3,260.6h6.3v48.9h-6.3
		V260.6z"/>
	<path class="st9" d="M625,260.6h10.5v6.2c1.1-2.4,2.7-4.3,4.5-5.5c1.9-1.3,4-1.9,6.2-1.9c1.6,0,3.3,0.4,5,1.3l-3.8,10.6
		c-1.4-0.7-2.6-1.1-3.6-1.1c-1.9,0-3.5,1.2-4.8,3.5s-2,6.9-2,13.8v2.4v19.8h-12V260.6z"/>
	<path class="st9" d="M700.3,260.6h6.3v39c0,6.9-0.6,11.9-1.8,15.1c-1.6,4.5-4.5,8-8.6,10.4s-9,3.6-14.7,3.6c-4.2,0-8-0.6-11.3-1.8
		c-3.3-1.2-6.1-2.8-8.2-4.8c-2.1-2-4-4.9-5.8-8.8h6.8c1.9,3.2,4.3,5.6,7.2,7.2s6.6,2.3,10.9,2.3c4.3,0,7.9-0.8,10.9-2.4
		s5.1-3.6,6.3-6c1.3-2.4,1.9-6.3,1.9-11.7v-2.5c-2.4,3-5.3,5.3-8.7,6.9s-7.1,2.4-10.9,2.4c-4.5,0-8.7-1.1-12.7-3.3
		c-4-2.2-7-5.2-9.2-9s-3.2-7.9-3.2-12.5c0-4.5,1.1-8.7,3.4-12.7c2.2-3.9,5.4-7,9.3-9.3c4-2.3,8.2-3.4,12.6-3.4
		c3.7,0,7.1,0.8,10.2,2.3c3.2,1.5,6.2,4,9.2,7.5L700.3,260.6L700.3,260.6z M681.7,265.4c-3.6,0-6.9,0.9-9.9,2.6
		c-3.1,1.7-5.5,4.1-7.2,7.1s-2.6,6.3-2.6,9.9c0,5.4,1.8,9.8,5.4,13.3c3.6,3.5,8.3,5.3,14,5.3c5.8,0,10.4-1.7,14-5.2
		c3.5-3.5,5.3-8,5.3-13.7c0-3.7-0.8-7-2.4-9.9c-1.6-2.9-3.9-5.2-6.9-6.9C688.3,266.3,685.2,265.4,681.7,265.4z"/>
	<path class="st9" d="M742.2,259.4c4.6,0,9,1.2,13,3.5c4.1,2.3,7.2,5.4,9.5,9.4s3.4,8.2,3.4,12.8c0,4.6-1.1,8.9-3.4,12.9
		c-2.3,4-5.4,7.2-9.4,9.4c-4,2.3-8.3,3.4-13.1,3.4c-7,0-13-2.5-18-7.5s-7.4-11.1-7.4-18.2c0-7.6,2.8-14,8.4-19.1
		C730.2,261.6,735.9,259.4,742.2,259.4z M742.4,270.9c-3.8,0-7,1.3-9.5,4s-3.8,6-3.8,10.2c0,4.3,1.3,7.7,3.8,10.3
		c2.5,2.6,5.7,4,9.5,4s7-1.3,9.6-4s3.8-6.1,3.8-10.3c0-4.2-1.3-7.6-3.8-10.2C749.6,272.2,746.3,270.9,742.4,270.9z"/>
</g>
</svg>
